# xmcd CD database file
# Copyright (C) 1996 Ti Kan
#
# Track frame offsets:
#	150
#	14617
#	30600
#	48675
#	62860
#	73290
#	84770
#	103242
#	120817
#	136072
#	153077
#	168395
#	180995
#	193922
#	208055
#	222910
#	233967
#	252857
#	265282
#	281100
#	300207
#
# Disc length: 4224 seconds
#
# Revision: 1
# Processed by: cddbd v1.4b41PL1 Copyright (c) Steve Scherf et al.
# Submitted via: EasyCD 2.21 - (C) 1996 Greg Leichner
#
DISCID=2a107e15
DTITLE=The Warratahs - The Best Of
DYEAR=1900
DGENRE=
TTITLE0=Hands Of My Heart
TTITLE1=Maureen
TTITLE2=Burned All Of My Dreams
TTITLE3=Drivin' Wheel
TTITLE4=Don't Ruin It
TTITLE5=East Of Mt Eden
TTITLE6=St Peters Rendezous
TTITLE7=Nothin' Ever Happens Around Here
TTITLE8=Bruno's Last Ride
TTITLE9=Taranaki
TTITLE10=My Friends Say Fool
TTITLE11=Ringing Of The Bell
TTITLE12=Turn Around
TTITLE13=Down Your Street
TTITLE14=Fool's Paradise
TTITLE15=Akautangi Way
TTITLE16=Big Sky
TTITLE17=High And Dry
TTITLE18=It's All Over Now
TTITLE19=Tightrope
TTITLE20=Another Town
EXTD=
EXTT0=
EXTT1=
EXTT2=
EXTT3=
EXTT4=
EXTT5=
EXTT6=
EXTT7=
EXTT8=
EXTT9=
EXTT10=
EXTT11=
EXTT12=
EXTT13=
EXTT14=
EXTT15=
EXTT16=
EXTT17=
EXTT18=
EXTT19=
EXTT20=
PLAYORDER=
